<?xml version="1.0" encoding="UTF-8"?>
<svg width="752pt" height="752pt" version="1.1" viewBox="0 0 752 752" xmlns="http://www.w3.org/2000/svg">
 <g>
  <path d="m581.24 298.26c-1.9414-34.637-30.488-136.33-132.64-148.73-20.695-2.5117-42.785-4.832-64.094-4.832-61.328 0-103.56 19.93-141.21 66.652-42.734 53.012-31.77 98.211-24.523 128.11 2.7461 11.289 5.1055 21.047 2.7383 25.793-9.9844 19.965-43.969 68.488-44.363 69.047-8.0781 11.961-10.258 20.668-6.8477 27.391 5.1797 10.219 21.414 10.855 37.109 11.453 10.789 0.42578 23.016 0.89844 26.617 4.6797 7.5781 7.9766 8.4688 33.047 9.1133 51.363 0.45312 12.824 0.81641 22.949 2.8906 28.746 1.2578 3.5312 4.6406 7.7305 13.609 7.7305 5.9375 0 13.27-1.6562 21.758-3.5703 13.215-2.9727 29.457-6.1016 39.809-3.5234 4.5352 1.1367 7.8789 3.5898 10.211 7.5 7.5117 12.645 1.8281 35.109 1.7812 35.328-0.37109 1.4219-0.058594 2.9375 0.84375 4.0898 0.89062 1.1562 2.2734 1.8359 3.7422 1.8359l194.78 0.003906c1.4766 0 2.8516-0.77734 3.7422-1.9492 0.89844-1.1758 1.1641-2.7852 0.77734-4.207-0.046876-0.1875-1.2305-4.707-1.2305-25.082 0-5.457-0.75781-10.789-1.5625-16.414-2.6602-18.754-5.9844-42.094 15.789-90.758 4.8203-10.758 9.0547-19.473 12.738-27.059 18.668-38.465 23.688-48.801 18.422-143.6zm-26.945 139.44c-3.7227 7.6641-8.0039 16.461-12.852 27.336-22.902 51.148-19.207 77.051-16.52 95.957 0.78516 5.5234 1.457 10.297 1.457 15.09 0 10.824 0.3125 17.57 0.69922 21.773h-183.51c1.4414-8.6953 2.8516-25.062-3.9961-36.598-3.6367-6.1289-9.0352-10.125-16.062-11.887-12.352-3.0859-29.902 0.25391-44.184 3.4766-11.926 2.6992-23.434 4.5352-24.371 1.8945-1.582-4.4219-1.9492-14.852-2.3398-25.895-0.78516-22.023-1.668-46.98-11.715-57.559-6.2422-6.5742-19.293-7.0742-33.113-7.6133-11.746-0.45312-26.367-1.0117-29.031-6.2695-0.92969-1.8203-1.3438-6.5625 6.1953-17.73 1.4102-2.0156 34.742-49.594 45.027-70.184 3.9219-7.8516 1.3086-18.621-2-32.25-6.8203-28.102-17.125-70.562 22.684-119.94 35.672-44.242 75.695-63.129 133.84-63.129 20.809 0 42.547 2.293 62.949 4.7656 97.367 11.82 122.85 113.33 124.33 139.86 5.125 92.336 0.78516 101.27-17.492 138.9z"/>
  <path d="m358.75 277.29c-1.8086-1.8672-4.8008-1.9414-6.6953-0.125l-67.098 64.719c-0.019532 0.019532-0.027344 0.046876-0.046876 0.074219-0.019531 0.019531-0.046874 0.019531-0.066406 0.046875-0.20703 0.21875-0.3125 0.49219-0.46484 0.73047-0.17187 0.26562-0.38672 0.50391-0.50391 0.78516-0.125 0.29297-0.13281 0.59766-0.19922 0.89844-0.058594 0.29297-0.15234 0.57812-0.15234 0.87109 0 0.29297 0.09375 0.57813 0.15234 0.87109 0.058593 0.30469 0.074218 0.60547 0.19922 0.89844 0.11328 0.28516 0.33203 0.51953 0.50391 0.77734 0.16016 0.24609 0.25391 0.51953 0.46484 0.73828 0.019532 0.019531 0.046875 0.027343 0.066406 0.046875 0.019532 0.019531 0.027344 0.046875 0.046876 0.074218l67.098 64.719c0.91797 0.89063 2.1016 1.3359 3.2852 1.3359 1.2422 0 2.4805-0.48438 3.4102-1.4492 1.8203-1.875 1.7617-4.8789-0.125-6.6875l-63.562-61.32 63.562-61.309c1.8867-1.8164 1.9414-4.8125 0.125-6.6953z"/>
  <path d="m509.81 344.4c-0.058594-0.29297-0.074219-0.59766-0.1875-0.88281-0.125-0.28516-0.33203-0.53125-0.51172-0.78516-0.16016-0.23828-0.25391-0.51172-0.46484-0.71875-0.019531-0.019531-0.046875-0.027344-0.074219-0.046875-0.019531-0.019531-0.027343-0.046875-0.046874-0.066406l-67.098-64.719c-1.8672-1.8203-4.8672-1.7539-6.6953 0.125-1.8086 1.8867-1.7617 4.8789 0.13281 6.6953l63.562 61.309-63.562 61.32c-1.8867 1.8086-1.9414 4.8125-0.125 6.6875 0.92969 0.97656 2.168 1.4492 3.3984 1.4492 1.1836 0 2.3672-0.44531 3.2852-1.3359l67.098-64.719c0.019531-0.019532 0.027344-0.039063 0.039063-0.058594 0.027344-0.027344 0.066406-0.027344 0.09375-0.058594 0.23828-0.24609 0.37109-0.56641 0.53906-0.85156 0.14062-0.21875 0.32031-0.41797 0.42578-0.65234 0.125-0.3125 0.15234-0.64453 0.19922-0.97656 0.046875-0.27344 0.14062-0.53906 0.14062-0.80469 0.011719-0.32031-0.082031-0.61328-0.14844-0.91016z"/>
  <path d="m427.12 259.21c-2.4336-0.82422-5.1719 0.42578-6.043 2.8906l-57.605 163.22c-0.87109 2.4609 0.42578 5.1719 2.8906 6.043 0.51953 0.1875 1.0508 0.26562 1.582 0.26562 1.9492 0 3.7773-1.2109 4.4688-3.1641l57.605-163.21c0.87109-2.4609-0.42578-5.1602-2.8984-6.043z"/>
 </g>
</svg>
